<mxfile host="app.diagrams.net" modified="2024-06-14T19:41:21.181Z" agent="Mozilla/5.0 (Windows NT 10.0; Win64; x64) AppleWebKit/537.36 (KHTML, like Gecko) Chrome/123.0.0.0 Safari/537.36 OPR/109.0.0.0" etag="fUvVIucYFUplYBGujD9X" version="24.5.4" type="github">
  <diagram name="Page-1" id="P-J-WtVK_cPfQbv6QtmY">
    <mxGraphModel dx="1393" dy="758" grid="1" gridSize="10" guides="1" tooltips="1" connect="1" arrows="1" fold="1" page="1" pageScale="1" pageWidth="850" pageHeight="1100" math="0" shadow="0">
      <root>
        <mxCell id="0" />
        <mxCell id="1" parent="0" />
        <mxCell id="NPhMXednGsEFQnQte3EM-17" style="edgeStyle=orthogonalEdgeStyle;rounded=0;orthogonalLoop=1;jettySize=auto;html=1;entryX=0;entryY=0.5;entryDx=0;entryDy=0;" edge="1" parent="1" source="NPhMXednGsEFQnQte3EM-2" target="NPhMXednGsEFQnQte3EM-3">
          <mxGeometry relative="1" as="geometry" />
        </mxCell>
        <mxCell id="NPhMXednGsEFQnQte3EM-2" value="&lt;b&gt;&lt;font style=&quot;font-size: 14px;&quot;&gt;Setup&lt;/font&gt;&lt;/b&gt;" style="rounded=1;whiteSpace=wrap;html=1;" vertex="1" parent="1">
          <mxGeometry x="50" y="270" width="110" height="60" as="geometry" />
        </mxCell>
        <mxCell id="NPhMXednGsEFQnQte3EM-10" style="edgeStyle=orthogonalEdgeStyle;rounded=0;orthogonalLoop=1;jettySize=auto;html=1;entryX=0.16;entryY=0.55;entryDx=0;entryDy=0;entryPerimeter=0;" edge="1" parent="1" source="NPhMXednGsEFQnQte3EM-3" target="NPhMXednGsEFQnQte3EM-9">
          <mxGeometry relative="1" as="geometry" />
        </mxCell>
        <mxCell id="NPhMXednGsEFQnQte3EM-13" value="Challenge" style="edgeLabel;html=1;align=center;verticalAlign=middle;resizable=0;points=[];" vertex="1" connectable="0" parent="NPhMXednGsEFQnQte3EM-10">
          <mxGeometry x="0.0706" y="-2" relative="1" as="geometry">
            <mxPoint as="offset" />
          </mxGeometry>
        </mxCell>
        <mxCell id="NPhMXednGsEFQnQte3EM-14" style="edgeStyle=orthogonalEdgeStyle;rounded=0;orthogonalLoop=1;jettySize=auto;html=1;" edge="1" parent="1" source="NPhMXednGsEFQnQte3EM-3" target="NPhMXednGsEFQnQte3EM-4">
          <mxGeometry relative="1" as="geometry" />
        </mxCell>
        <mxCell id="NPhMXednGsEFQnQte3EM-15" value="Frictionless" style="edgeLabel;html=1;align=center;verticalAlign=middle;resizable=0;points=[];" vertex="1" connectable="0" parent="NPhMXednGsEFQnQte3EM-14">
          <mxGeometry x="-0.0545" relative="1" as="geometry">
            <mxPoint as="offset" />
          </mxGeometry>
        </mxCell>
        <mxCell id="NPhMXednGsEFQnQte3EM-3" value="&lt;b&gt;&lt;font style=&quot;font-size: 14px;&quot;&gt;Enrollment&lt;/font&gt;&lt;/b&gt;" style="rounded=1;whiteSpace=wrap;html=1;" vertex="1" parent="1">
          <mxGeometry x="200" y="270" width="120" height="60" as="geometry" />
        </mxCell>
        <mxCell id="NPhMXednGsEFQnQte3EM-16" style="edgeStyle=orthogonalEdgeStyle;rounded=0;orthogonalLoop=1;jettySize=auto;html=1;" edge="1" parent="1" source="NPhMXednGsEFQnQte3EM-4" target="NPhMXednGsEFQnQte3EM-5">
          <mxGeometry relative="1" as="geometry" />
        </mxCell>
        <mxCell id="NPhMXednGsEFQnQte3EM-4" value="&lt;b&gt;&lt;font style=&quot;font-size: 14px;&quot;&gt;Authorization&lt;/font&gt;&lt;/b&gt;" style="rounded=1;whiteSpace=wrap;html=1;" vertex="1" parent="1">
          <mxGeometry x="430" y="270" width="120" height="60" as="geometry" />
        </mxCell>
        <mxCell id="NPhMXednGsEFQnQte3EM-5" value="&lt;b&gt;&lt;font style=&quot;font-size: 14px;&quot;&gt;Capture/Settle&lt;/font&gt;&lt;/b&gt;" style="rounded=1;whiteSpace=wrap;html=1;" vertex="1" parent="1">
          <mxGeometry x="630" y="270" width="120" height="60" as="geometry" />
        </mxCell>
        <mxCell id="NPhMXednGsEFQnQte3EM-11" style="edgeStyle=orthogonalEdgeStyle;rounded=0;orthogonalLoop=1;jettySize=auto;html=1;entryX=0.75;entryY=0;entryDx=0;entryDy=0;exitX=0.96;exitY=0.7;exitDx=0;exitDy=0;exitPerimeter=0;" edge="1" parent="1" source="NPhMXednGsEFQnQte3EM-9" target="NPhMXednGsEFQnQte3EM-4">
          <mxGeometry relative="1" as="geometry">
            <Array as="points">
              <mxPoint x="425" y="240" />
              <mxPoint x="480" y="240" />
              <mxPoint x="480" y="270" />
            </Array>
          </mxGeometry>
        </mxCell>
        <mxCell id="NPhMXednGsEFQnQte3EM-9" value="Validation&lt;div&gt;(Challenge)&lt;/div&gt;" style="ellipse;shape=cloud;whiteSpace=wrap;html=1;" vertex="1" parent="1">
          <mxGeometry x="310" y="130" width="120" height="80" as="geometry" />
        </mxCell>
      </root>
    </mxGraphModel>
  </diagram>
</mxfile>
